<?xml version="1.0" encoding="utf-8"?>
<!-- Generator: Adobe Illustrator 23.0.1, SVG Export Plug-In . SVG Version: 6.00 Build 0)  -->
<svg version="1.1" id="Layer_1" xmlns="http://www.w3.org/2000/svg" xmlns:xlink="http://www.w3.org/1999/xlink" x="0px" y="0px"
	 viewBox="0 0 156.8 185.3" style="enable-background:new 0 0 156.8 185.3;" xml:space="preserve">
<style type="text/css">
	.st0{fill:#58A1F9;}
	.st1{fill:#445383;}
</style>
<title>business-user</title>
<circle class="st0" cx="81.1" cy="65.5" r="29.8"/>
<path class="st1" d="M47.8,65.5C47.8,84,62.7,99,81.1,99s33.3-15,33.3-33.5S99.4,32,81.1,32S47.8,47.1,47.8,65.5z M108.3,65.5
	c0,15.1-12.2,27.4-27.2,27.4S53.9,80.6,53.9,65.5s12.2-27.4,27.2-27.4S108.3,50.4,108.3,65.5z"/>
<path class="st1" d="M77.5,47.3v3.6c-3.5,1.3-6,4.6-6,8.6c0,5,4.1,9.1,9.1,9.1c1.7,0,3,1.4,3,3c0,1.7-1.4,3-3,3
	c-1.3,0-2.7-0.8-3.9-2.3c-1.1-1.3-3-1.5-4.3-0.4s-1.4,3-0.4,4.3c1.6,1.9,3.5,3.3,5.5,4v3.6c0,1.7,1.4,3,3,3s3-1.4,3-3v-3.6
	c3.5-1.3,6-4.6,6-8.6c0-5-4.1-9.1-9.1-9.1c-1.7,0-3-1.4-3-3c0-1.7,1.4-3,3-3c1.1,0,2.2,0.6,3.3,1.6c1.2,1.2,3.1,1.1,4.3-0.1
	c1.2-1.2,1.1-3.1-0.1-4.3c-1.5-1.5-3.1-2.3-4.5-2.8v-3.5c0-1.7-1.4-3-3-3S77.5,45.6,77.5,47.3z"/>
<path class="st1" d="M64.7,160.2c-0.9-0.5-1.9-0.9-2.9-1.2c-0.4-0.3-1-0.6-1.5-0.7l-3-1.2l-0.7-0.3l-3.6-1.6l-0.9-0.4
	c-1-0.6-2.1-1-3.2-1.3c-0.2-0.3-0.5-0.3-0.8-0.3c-1.1-0.6-2.2-1.1-3.4-1.4c-0.5-0.3-1.1-0.5-1.6-0.8c-0.7-0.4-1.1-0.3-1,0.6
	c0,1.3-0.3,2.6-0.9,3.7c-0.7,0.9-1.5,1.7-2.3,2.5l-2.5,1l-4.2,0.2c-0.6-0.2-1.2-0.2-1.8,0c-1.4-0.2-2.7-0.2-4.1,0
	c-0.6-0.2-1.2-0.2-1.8,0c-1.4-0.2-2.7-0.2-4.1,0c-0.6-0.2-1.2-0.2-1.8,0c-1.4-0.2-2.7-0.2-4.1,0c-0.6-0.1-1.2-0.2-1.7-0.1l-2.9-0.8
	l-1.2-0.9c-1.7-1.7-2.6-4-2.5-6.4c0.1-15.2,0.1-30.5,0-45.7c-0.1-1.7,0.3-3.4,1.2-4.9l1.8-1.9c1.7-1,3.6-1.5,5.6-1.4h19.1l3.4,0.4
	l1.3,0.6c0.9,0.7,1.6,1.4,2.3,2.3l0.3,0.5c0.3,0.7,0.5,1.4,0.7,2.1c0.1,1.1,0.6,1.3,1.5,1l1.7,0.1l3.8,0.3l1.4,0.2l3.6,0.7l0.5,0.1
	l3.9,1.3l1.2,0.4l2.9,1.3c0.3,0.3,0.7,0.5,1.2,0.6l2.9,1.6l0.4,0.3l2.7,1.8c0.3,0.4,0.8,0.7,1.3,0.9c0.7,0.7,1.5,1.3,2.3,1.9
	c0.2,0.4,0.5,0.6,0.9,0.8c0.9,1,1.7,1.9,3.2,1.4h19.1l4.1,0.2c0.3,0.3,0.8,0.3,1.2,0.3l2.5,1.2l0.9,0.6l2.4,2.6
	c0,0.2,0.1,0.4,0.3,0.4l1.5,3.4c0,0.4,0.1,0.8,0.3,1.2l0.1,2.6l6.2-3.8c1.1-0.5,2.2-1.2,3.2-1.9c3.5-1.9,6.9-3.9,10.3-6.1l3.5-2
	c2.5-1.3,4.8-3.1,7.7-3.5h1.5c1.3,0.1,2.6,0.4,3.8,0.7l0.9,0.5l2.3,1.6l0.6,0.6c1.9,2.4,2.8,5.5,2.5,8.6c-0.3,2.8-1.8,5.4-4.1,7
	c-1.9,1.4-3.7,2.7-5.6,4.1l-4.6,3.2l-14.1,10.1c-1.7,1.1-3.4,2.3-5,3.5l-13.8,9.9l-5,3.5c-2.1,1.4-4.5,2.4-7,2.9
	c-0.6-0.1-1.2,0-1.7,0.2l-4.1-0.2l-1.2-0.3l-3.2-1.2l-1.1-0.5l-2.9-1.2l-0.6-0.2c-1.1-0.6-2.3-1.1-3.5-1.5c-0.3-0.3-0.7-0.5-1.2-0.5
	c-1-0.6-2.1-1-3.2-1.3c-0.3-0.3-0.8-0.5-1.2-0.5c-0.9-0.5-1.9-0.9-2.9-1.2C65.3,160.3,65,160.2,64.7,160.2z M15.1,101.9
	c-1,0-2-0.3-3,0.3c-1.6,0.9-1.4,2.5-1.3,4v44.1c-0.1,1.6-0.3,3.2,1.6,3.9c0.4,0.3,1,0.4,1.5,0.2h17.6c1.1,0,2.2,0.1,3.3,0.1
	c1.4,0.1,2.7-1,2.8-2.4c0-0.1,0-0.3,0-0.4c0-1.3,0-2.5,0-3.8v-42.6c0-0.5,0.3-1.1-0.2-1.5c-0.5-1.7-1.1-2-3.5-1.8L15.1,101.9
	L15.1,101.9z M42.2,116.2c-0.1,0.6-0.1,1.2,0,1.8c-0.1,1.4-0.1,2.8,0,4.2c-0.1,0.6-0.1,1.2,0,1.8c-0.1,1.4-0.1,2.8,0,4.2
	c-0.1,0.6-0.1,1.2,0,1.8c-0.1,1.4-0.1,2.8,0,4.2c-0.1,0.6-0.1,1.2,0,1.8c-0.1,1.4-0.1,2.8,0,4.2c-0.1,0.6-0.1,1.2,0,1.8
	c0,0.7,0,1.5-0.1,2.2c-0.1,1.2,0.3,1.7,1.4,1.7c0.2,0.3,0.5,0.3,0.8,0.3c0.9,0.5,1.9,0.9,2.9,1.2l1.6,0.7l2.9,1.2l0.6,0.2
	c1.1,0.6,2.3,1.1,3.5,1.4c0.3,0.3,0.7,0.5,1.2,0.5c1,0.6,2.1,1,3.2,1.3c0.3,0.3,0.7,0.5,1.2,0.5l2.9,1.2l1.1,0.5l2.9,1.2L69,157
	c1.1,0.6,2.3,1.1,3.5,1.4c0.3,0.3,0.7,0.5,1.2,0.5c1,0.6,2.1,1,3.2,1.3c0.3,0.3,0.7,0.5,1.2,0.5c0.8,0.4,1.6,0.8,2.5,1l1.6,0.7
	l2.9,1.2c0.4,0.3,0.8,0.4,1.2,0.4c1.2,0.5,2.5,0.7,3.8,0.6c0.6,0.1,1.2,0,1.7-0.2c0.5,0,1-0.1,1.4-0.2c3.2-0.9,5.7-3.2,8.3-5.1
	l4.7-3.3L120,146c1.6-1,3.2-2.1,4.6-3.2l13.8-9.9c2.3-1.6,4.6-3.1,6.7-4.7c1.5-1.1,2.3-2.9,2.1-4.7c0.2-1.2-0.1-2.4-0.9-3.3
	c-0.3-0.5-0.7-0.9-1.2-1.2c-0.9-0.8-2-1.2-3.2-1.2c-0.7-0.1-1.4,0-2,0.3c-3.5,1.7-6.8,3.8-10.1,5.8l-3.2,1.8
	c-3.4,1.9-6.8,3.8-10,5.9l-3.5,2c-2.1,1.2-4.3,2.2-6.1,3.7c-1.6,1.5-3.4,2.8-5.4,3.7l-1.7,0.4l-4.7,0.3c-0.6-0.1-1.2-0.1-1.7,0.1
	l-4.4,0.1c-0.5-0.2-1-0.2-1.5-0.1l-3.8-0.2c-0.5-0.2-1-0.3-1.5-0.2l-3.8-0.6l-1.4-0.2l-3.6-0.7l-1.1-0.4c-0.7-0.6-1.1-1.5-1.2-2.4
	c0.3-0.9,1-1.6,1.9-1.9l3.6,0.5c0.5,0.2,1,0.3,1.5,0.2c1.2,0.4,2.5,0.6,3.8,0.5l1.4,0.2l3.9,0.3L89,137h4.4l1.7-0.1
	c1.6,0,3.2-0.1,4.7-0.5c2.8-0.4,4.9-2.6,5.4-5.8c0.3-1.3,0.1-2.7-0.5-3.9c-0.1-0.5-0.4-1-0.8-1.3c-0.5-1-1.4-1.7-2.4-2.1
	c-0.3-0.3-0.8-0.5-1.2-0.5c-1.3-0.6-2.7-0.3-4.1-0.3H77.3c-1.1-0.2-2.3,0.2-3.4-0.4c-0.2-0.4-0.6-0.7-1-0.9c-0.6-0.7-1.3-1.3-2-1.8
	c-0.3-0.4-0.7-0.7-1.2-1c-0.7-0.7-1.5-1.3-2.4-1.7c-0.3-0.4-0.7-0.7-1.2-0.9c-0.6-0.6-1.4-1-2.2-1.4c-0.3-0.3-0.7-0.5-1.1-0.6
	c-1.1-0.8-2.2-1.3-3.5-1.7c-0.2-0.2-0.5-0.4-0.9-0.4c-1-0.6-2.1-1-3.2-1.2c-0.3-0.3-0.7-0.3-1-0.3c-1.2-0.5-2.4-0.8-3.6-0.9
	c-0.4-0.3-1-0.4-1.5-0.3c-2-0.4-4.1-0.6-6.2-0.6c-0.7,0-0.8,0.4-0.8,0.9C42.2,111.7,42.2,113.9,42.2,116.2z"/>
</svg>
