<?xml version="1.0" encoding="utf-8"?>
<!-- Generator: Adobe Illustrator 23.0.1, SVG Export Plug-In . SVG Version: 6.00 Build 0)  -->
<svg version="1.1" id="Layer_1" xmlns="http://www.w3.org/2000/svg" xmlns:xlink="http://www.w3.org/1999/xlink" x="0px" y="0px"
	 viewBox="0 0 168.1 184.4" style="enable-background:new 0 0 168.1 184.4;" xml:space="preserve">
<style type="text/css">
	.st0{fill:#445383;}
	.st1{fill:#48BC59;}
</style>
<title>home-user</title>
<g>
	<g id="Layer_1-2">
		<path class="st0" d="M68.5,167.7c-1-0.6-2-1-3.1-1.3c-0.5-0.4-1-0.6-1.6-0.7l-3.2-1.3l-0.7-0.3l-3.9-1.7l-1-0.4
			c-1.1-0.6-2.3-1.1-3.5-1.4c-0.2-0.3-0.5-0.3-0.8-0.4c-1.1-0.6-2.4-1.2-3.6-1.5c-0.6-0.3-1.1-0.5-1.7-0.8c-0.8-0.4-1.2-0.3-1.1,0.7
			c0,1.4-0.4,2.8-1,4c-0.7,1-1.6,1.9-2.5,2.7l-2.7,1l-4.6,0.2c-0.6-0.2-1.3-0.2-1.9,0c-1.5-0.2-2.9-0.2-4.4,0
			c-0.6-0.2-1.3-0.2-1.9,0c-1.5-0.2-2.9-0.2-4.4,0c-0.6-0.2-1.3-0.2-1.9,0c-1.5-0.2-2.9-0.2-4.4,0c-0.6-0.2-1.3-0.2-1.9-0.1
			l-3.1-0.9L8,164.5c-1.9-1.8-2.8-4.3-2.7-6.9c0.1-16.5,0.1-32.9,0-49.4c-0.1-1.9,0.4-3.7,1.3-5.3l2-2.1c1.8-1.1,3.9-1.6,6-1.5h20.6
			l3.6,0.4l1.4,0.7c0.9,0.7,1.8,1.5,2.5,2.4l0.3,0.5c0.3,0.7,0.6,1.5,0.7,2.3c0.1,1.1,0.6,1.4,1.6,1.1l1.9,0.1l4.1,0.4l1.5,0.2
			l3.9,0.8l0.6,0.2l4.2,1.4l1.3,0.5l3.2,1.4c0.3,0.3,0.8,0.6,1.3,0.6l3.1,1.8l0.5,0.3l3,1.9c0.4,0.4,0.8,0.7,1.4,0.9
			c0.7,0.8,1.6,1.5,2.5,2c0.2,0.4,0.5,0.7,0.9,0.9c0.9,1.1,1.9,2,3.5,1.5h20.6l4.4,0.2c0.4,0.3,0.8,0.3,1.3,0.4l2.7,1.3l0.9,0.7
			l2.6,2.8c0,0.2,0.1,0.4,0.3,0.5l1.6,3.6c0,0.5,0.1,0.9,0.3,1.3l0.1,2.8l6.7-4.1c1.2-0.6,2.4-1.2,3.4-2c3.7-2.1,7.5-4.3,11.1-6.6
			l3.7-2.2c2.7-1.4,5.2-3.4,8.3-3.8h1.6c1.4,0.1,2.8,0.4,4.1,0.8l0.9,0.5l2.4,1.8l0.6,0.6c2.1,2.6,3,6,2.7,9.3c-0.3,3-2,5.8-4.5,7.5
			c-2,1.5-4,2.9-6,4.4l-5,3.5l-15.2,11c-1.9,1.2-3.7,2.4-5.4,3.8l-14.9,10.7l-5.4,3.8c-2.3,1.5-4.9,2.6-7.6,3.2
			c-0.6-0.1-1.3,0-1.9,0.2l-4.4-0.2L91,177l-3.5-1.3l-1.2-0.5l-3.2-1.3l-0.7-0.2c-1.2-0.7-2.5-1.2-3.8-1.6c-0.4-0.3-0.8-0.5-1.3-0.6
			c-1.1-0.6-2.3-1.1-3.5-1.4c-0.4-0.3-0.8-0.5-1.3-0.6c-1-0.6-2.1-1-3.2-1.3C69.2,167.8,68.9,167.6,68.5,167.7z M14.9,104.6
			c-1.1,0-2.2-0.3-3.2,0.3c-1.7,0.9-1.5,2.7-1.4,4.3v47.7c-0.1,1.7-0.3,3.5,1.8,4.2c0.5,0.3,1,0.4,1.6,0.2h19c1.2,0,2.4,0.1,3.6,0.1
			c1.5,0.1,2.9-1.1,3-2.6c0-0.1,0-0.3,0-0.4c0-1.4,0-2.7,0-4.1v-46c0-0.6,0.3-1.2-0.2-1.6c-0.5-1.8-1.2-2.2-3.7-2L14.9,104.6
			L14.9,104.6z M44.2,120.1c-0.1,0.7-0.1,1.3,0,2c-0.1,1.5-0.1,3.1,0,4.6c-0.1,0.7-0.1,1.3,0,2c-0.1,1.5-0.1,3.1,0,4.6
			c-0.1,0.7-0.1,1.3,0,2c-0.1,1.5-0.1,3.1,0,4.6c-0.1,0.7-0.1,1.3,0,2c-0.1,1.5-0.1,3.1,0,4.6c-0.1,0.7-0.1,1.3,0,2
			c0,0.8,0,1.6-0.1,2.4c-0.2,1.2,0.3,1.9,1.5,1.9c0.2,0.3,0.5,0.3,0.8,0.4c1,0.6,2,1,3.1,1.3l1.7,0.8l3.2,1.3l0.7,0.3
			c1.2,0.7,2.4,1.2,3.7,1.6c0.4,0.3,0.8,0.5,1.3,0.6c1.1,0.6,2.3,1.1,3.5,1.4c0.4,0.3,0.8,0.5,1.3,0.6l3.2,1.3l1.2,0.5l3.2,1.3
			l0.7,0.3c1.2,0.7,2.4,1.2,3.7,1.6c0.4,0.3,0.8,0.5,1.3,0.6c1.1,0.6,2.3,1.1,3.5,1.4c0.4,0.3,0.8,0.5,1.3,0.6
			c0.8,0.5,1.7,0.9,2.7,1.1l1.7,0.7l3.2,1.3c0.4,0.3,0.8,0.4,1.3,0.4c1.3,0.5,2.7,0.7,4.1,0.6c0.6,0.1,1.3,0,1.9-0.2
			c0.5,0,1-0.1,1.5-0.3c3.5-1,6.1-3.5,9-5.5l5.1-3.6l14.9-10.6c1.7-1.1,3.4-2.2,5-3.5l14.9-10.7c2.4-1.7,4.9-3.3,7.3-5.1
			c1.6-1.2,2.5-3.1,2.3-5.1c0.2-1.3-0.1-2.6-1-3.6c-0.3-0.6-0.7-1-1.3-1.3c-0.9-0.9-2.2-1.3-3.5-1.3c-0.7-0.1-1.5,0-2.2,0.4
			c-3.7,1.9-7.3,4.1-10.9,6.3l-3.4,2c-3.6,2.1-7.3,4.1-10.8,6.4l-3.7,2.1c-2.2,1.3-4.7,2.3-6.6,4c-1.7,1.6-3.7,3-5.8,4l-1.9,0.4
			l-5.1,0.4c-0.6-0.1-1.3-0.1-1.9,0.1L95,148c-0.5-0.2-1.1-0.2-1.6-0.1l-4.1-0.2c-0.5-0.2-1.1-0.3-1.6-0.2l-4.1-0.6l-1.5-0.2
			l-3.8-0.8l-1.2-0.4c-0.8-0.7-1.2-1.6-1.3-2.6c0.3-1,1.1-1.7,2.1-2.1l3.9,0.5c0.5,0.3,1.1,0.3,1.6,0.3c1.3,0.4,2.7,0.6,4.1,0.6
			l1.5,0.2l4.2,0.3l1.6,0.1h4.7l1.9-0.1c1.7,0,3.4-0.2,5.1-0.5c3.1-0.4,5.2-2.8,5.9-6.2c0.3-1.4,0.1-3-0.5-4.3
			c-0.1-0.6-0.4-1.1-0.8-1.4c-0.5-1-1.5-1.8-2.6-2.3c-0.3-0.3-0.8-0.5-1.3-0.5c-1.4-0.6-2.9-0.3-4.4-0.3H82.1
			c-1.2-0.2-2.5,0.2-3.7-0.4c-0.3-0.4-0.6-0.7-1-0.9c-0.6-0.8-1.4-1.4-2.2-2c-0.3-0.4-0.8-0.8-1.3-1c-0.7-0.8-1.6-1.4-2.5-1.9
			c-0.3-0.4-0.8-0.8-1.3-0.9c-0.7-0.6-1.5-1.1-2.4-1.5c-0.3-0.3-0.7-0.6-1.2-0.7c-1.1-0.8-2.4-1.4-3.7-1.9c-0.2-0.3-0.6-0.4-0.9-0.4
			c-1.1-0.6-2.3-1.1-3.5-1.3c-0.3-0.4-0.7-0.3-1.1-0.4c-1.3-0.5-2.6-0.8-3.9-0.9c-0.5-0.3-1-0.4-1.6-0.3c-2.2-0.5-4.5-0.7-6.7-0.6
			c-0.8,0-0.8,0.4-0.8,1C44.2,115.3,44.2,117.7,44.2,120.1z"/>
		<rect x="62.6" y="67" class="st1" width="37.4" height="31.3"/>
		<path class="st0" d="M104.4,98.9c-0.8,1.6-2.1,3-3.7,3.8l-2.2,0.5c-1.5-0.1-2.9-0.1-4.4,0c-0.6-0.2-1.3-0.2-1.9,0
			c-0.7-0.1-1.5-0.1-2.4-0.1s-1.6,0-2.3,0.1H87c-0.4,0-0.8,0-1.2,0c-0.7-0.1-1.5-0.1-2.4-0.1c-0.8,0-1.6,0-2.3,0.1h-1.5l0,0
			c-0.7-0.1-1.5-0.1-2.4-0.1c-0.8,0-1.6,0-2.3,0.1h-0.4c-0.4,0-0.8,0-1.2,0c-1.5-0.1-2.9-0.1-4.4,0c-0.6-0.2-1.3-0.2-1.9,0l-4.4-0.3
			l-0.9-0.5l-2.2-1.7l-0.9-1.4c-0.4-1.1-0.6-2.2-0.7-3.3V75.6v-4.7l0.4-1.9c0.8-1.8,2.2-3.3,4-4.1c1.1-0.1,2.2-0.2,1.7-1.9
			c0.2-1.5,0.2-2.9,0-4.4c0.2-0.6,0.2-1.3,0-1.9c0.1-1.5,0.2-2.9,0.1-4.4l0.1-1.9c0.6-3,1.8-5.7,3.6-8.2l2.7-2.7
			c2.4-1.8,5.2-3,8.1-3.6c0.6,0.1,1.3,0,1.9-0.2l4.4,0.4l1.2,0.3l3.1,1.3l0.9,0.5l2.5,1.9l0.9,0.9l1.9,2.2c0.3,0.5,0.6,0.9,0.9,1.4
			c0.4,0.9,0.8,1.8,1.2,2.7c0,0.4,0.2,0.9,0.4,1.2c0.2,1.4,0.4,2.7,0.6,4.1v1.6c0,1.6,0,3.1,0,4.7v1.6c0,0.8,0,1.6-0.1,2.3
			c-0.2,1.3,0.4,1.8,1.6,1.7l0.9,0.4c0.9,0.6,1.8,1.4,2.5,2.3l0.3,0.5c0.5,1.3,0.8,2.7,0.8,4.1v1.6c0,1.6,0,3.1,0,4.7v1.7
			c0,1.6,0,3.1,0,4.7c0,0.5,0,1.1,0,1.6c0,1.6,0,3.1,0,4.7v1.6c0,1.4,0,2.9,0,4.3L104.4,98.9z M93.7,60.2v-1.6c0-1.6,0-3.1,0-4.7
			v-1.6c0-1.5-0.3-3.1-1.1-4.4c-0.1-0.3-0.1-0.5-0.4-0.7c-0.5-1.2-1.2-2.2-2.2-3c-0.2-0.4-0.5-0.7-0.9-0.9c-0.7-0.7-1.5-1.2-2.5-1.5
			c-0.2-0.3-0.6-0.3-0.9-0.4c-1.5-0.7-3.2-1-4.8-0.8c-6.7,0.1-12,5.5-12.1,12.2c-0.1,1.5-0.1,2.9,0,4.4c-0.1,0.6-0.1,1.3,0,1.9
			c-0.1,1.5-0.1,3,0,4.4c0.4,1.3,1.4,0.4,2.1,0.6h18.8C94,64.5,94,64.5,93.7,60.2z M99.7,96.7c0.3-1.5,0.3-3.1,0.1-4.7
			c0.1-0.6,0.1-1.3,0-1.9c0.2-1.5,0.2-2.9,0-4.4c0.1-0.6,0.1-1.3,0-1.9c0.2-1.5,0.2-2.9,0-4.4c0.1-0.6,0.1-1.3,0-1.9
			c0.2-1.5,0.2-2.9,0-4.4c0.2-0.6,0.2-1.3,0-1.9c-0.4-1.8-1.1-2.2-3.3-2.1H69.8c-1.7,0-3.3-0.1-5,0c-1.1-0.1-2.1,0.7-2.2,1.9
			c0,0.1,0,0.2,0,0.4c0,1.7,0,3.3,0,5v18.7c0,0.7-0.3,1.3,0.3,1.9c0.8,1.8,2.4,1.1,3.7,1.2h26.8h4.7C98.9,98.2,99.6,97.5,99.7,96.7z
			"/>
		<path class="st0" d="M127.8,45.7l2.8,2.6l1.5,1.3l2.7,2.4c0.2,0.4,0.5,0.7,0.9,0.8l2.8,2.6c0.4,0.5,0.9,1,1.4,1.3l2.7,2.5
			c0.2,0.4,0.5,0.7,0.9,0.8l2.8,2.6c0.4,0.5,0.9,1,1.4,1.3l2.3,2.5l0.1,1.9c-0.5,1-1.3,1.9-2.4,2.3l-1.5-0.1l-2.6-2.2
			c-0.4-0.5-0.9-1-1.4-1.3l-2.7-2.5c-0.2-0.4-0.5-0.7-0.9-0.8l-2.8-2.6c-0.4-0.6-0.9-1.1-1.5-1.4l-2.6-2.4c-0.2-0.4-0.5-0.7-0.9-0.8
			l-2.8-2.6c-0.4-0.6-0.9-1.1-1.5-1.4l-2.6-2.4c-0.2-0.4-0.5-0.7-0.9-0.8l-2.8-2.6c-0.4-0.6-0.9-1.1-1.6-1.4l-2.6-2.3
			c-0.2-0.4-0.4-0.6-0.8-0.7c-0.9-1-1.9-1.9-3-2.7c-0.4-0.6-1-1.1-1.6-1.5c-0.8-0.9-1.6-1.6-2.6-2.3c-0.3-0.5-0.7-0.9-1.2-1.1
			c-0.7-0.9-1.6-1.7-2.5-2.3c-0.4-0.6-0.9-1.1-1.6-1.5c-0.7-0.9-1.6-1.7-2.6-2.3c-0.3-0.5-0.7-0.9-1.2-1.1c-0.7-0.9-1.6-1.7-2.5-2.3
			c-0.4-0.6-1-1.1-1.6-1.5c-0.7-0.9-1.6-1.7-2.5-2.3c-0.3-0.5-0.7-0.9-1.2-1.1c-0.9-1-1.9-1.9-3-2.7c-0.3-0.5-0.7-0.8-1.2-1.1
			c-0.7-0.9-1.6-1.7-2.5-2.3c-0.3-0.5-0.7-0.9-1.2-1.1c-0.9-1.6-1.9-1.6-3.3-0.3c-2.4,2.5-5.1,4.7-7.6,7
			C64,27.2,55.9,34.6,47.8,42.1C40.5,48.5,33.3,55,26.2,61.6c-3.1,2.8-6.2,5.5-9.2,8.3c-1.5,1.4-3,1.7-4.7,0.5L12,69.8
			c-0.5-1.9,0.3-3.2,1.7-4.4c11-9.9,21.9-19.9,32.8-29.9c0.5-0.5,0.9-0.9,1.5-1.5c7.6-6.6,15-13.5,22.3-20.3
			c2.8-2.5,5.5-4.9,8.2-7.4c1.3-1.2,2.7-1.8,4.4-1.1l1.7,1.4c0.8,0.9,1.6,1.7,2.6,2.3c0.3,0.5,0.7,0.9,1.2,1.1
			c0.7,0.9,1.6,1.7,2.6,2.3c0.4,0.6,1,1.1,1.6,1.5l2.6,2.3c0.3,0.5,0.7,0.9,1.2,1.1c0.8,0.9,1.6,1.7,2.6,2.3c0.4,0.6,1,1.1,1.6,1.4
			l2.6,2.3c0.3,0.5,0.7,0.9,1.2,1.1l2.6,2.3c0.4,0.6,0.9,1.1,1.6,1.5l2.6,2.3c0.2,0.4,0.5,0.7,0.9,0.8l2.8,2.5
			c0.4,0.6,0.9,1.1,1.6,1.4l2.6,2.3c0.2,0.4,0.5,0.7,0.9,0.8l2.9,2.6l1.5,1.3l2.7,2.4C127.1,45.2,127.4,45.5,127.8,45.7z"/>
		<path class="st0" d="M79.1,91.4l-0.2-1.5v-4.7c0-1.4,1.1-2.6,2.6-2.6c0,0,0,0,0,0c0.9,0.2,1.7,0.8,2.2,1.6l0.2,1.6
			c-0.2,1.5-0.2,2.9,0,4.4c0,1.5-1.2,2.8-2.7,2.8C80.3,92.8,79.5,92.2,79.1,91.4z"/>
	</g>
</g>
</svg>
