<?xml version="1.0" encoding="UTF-8"?>
<!DOCTYPE svg PUBLIC "-//W3C//DTD SVG 1.1//EN" "http://www.w3.org/Graphics/SVG/1.1/DTD/svg11.dtd">
<!-- Creator: CorelDRAW 2018 (64-Bit) -->
<svg xmlns="http://www.w3.org/2000/svg" xml:space="preserve" width="2.01341in" height="0.728677in" version="1.1" style="shape-rendering:geometricPrecision; text-rendering:geometricPrecision; image-rendering:optimizeQuality; fill-rule:evenodd; clip-rule:evenodd"
viewBox="0 0 578.36 209.31"
 xmlns:xlink="http://www.w3.org/1999/xlink">
 <defs>
  <style type="text/css">
   <![CDATA[
    .fil0 {fill:#FEFEFE}
    .fil3 {fill:#008F4F}
    .fil1 {fill:#FEFEFE;fill-rule:nonzero}
    .fil4 {fill:#373435;fill-rule:nonzero}
    .fil2 {fill:#008F4F;fill-rule:nonzero}
   ]]>
  </style>
 </defs>
 <g id="Layer_x0020_1">
  <metadata id="CorelCorpID_0Corel-Layer"/>
  <g id="_1651272992">
   <g>
    <path class="fil0" d="M80.18 14.18l418.01 0c36.98,0 67.23,40.71 67.23,90.47l0 0c0,49.76 -30.25,90.47 -67.23,90.47l-418.01 0c-36.98,0 -67.23,-40.71 -67.23,-90.47l0 0c0,-49.76 30.25,-90.47 67.23,-90.47z"/>
    <path id="1" class="fil1" d="M498.19 28.37l-418.01 0 0 -28.37 418.01 0 0 0 0 28.37zm80.17 76.29l-25.88 0 0 0 -0.08 -4.05 -0.23 -3.99 -0.37 -3.93 -0.52 -3.86 -0.65 -3.79 -0.79 -3.71 -0.92 -3.63 -1.04 -3.54 -1.16 -3.44 -1.28 -3.34 -1.39 -3.24 -1.49 -3.13 -1.59 -3.01 -1.69 -2.89 -1.78 -2.76 -1.86 -2.63 -1.95 -2.5 -2.02 -2.35 -2.09 -2.21 -2.15 -2.06 -2.21 -1.91 -2.26 -1.75 -2.31 -1.6 -2.35 -1.44 -2.39 -1.28 -2.43 -1.11 -2.46 -0.95 -2.5 -0.78 -2.53 -0.61 -2.56 -0.44 -2.6 -0.27 -2.64 -0.09 0 -28.37 4.25 0.15 4.2 0.43 4.15 0.71 4.07 0.99 3.99 1.25 3.91 1.5 3.81 1.74 3.71 1.97 3.6 2.2 3.49 2.41 3.37 2.62 3.25 2.81 3.12 3 3 3.17 2.87 3.34 2.73 3.51 2.6 3.66 2.46 3.81 2.31 3.95 2.16 4.09 2.01 4.22 1.86 4.34 1.7 4.46 1.54 4.57 1.38 4.67 1.2 4.77 1.03 4.86 0.85 4.95 0.67 5.03 0.49 5.1 0.29 5.17 0.1 5.22 0 0zm-12.94 0l0 0 0 0 0 0 12.94 0 -12.94 0zm-67.23 104.66l0 -28.37 0 0 2.64 -0.09 2.6 -0.27 2.56 -0.44 2.53 -0.61 2.5 -0.78 2.46 -0.95 2.43 -1.11 2.39 -1.28 2.35 -1.44 2.31 -1.6 2.26 -1.75 2.21 -1.91 2.15 -2.06 2.09 -2.21 2.02 -2.36 1.95 -2.5 1.86 -2.63 1.78 -2.76 1.69 -2.89 1.59 -3.01 1.49 -3.13 1.39 -3.24 1.28 -3.34 1.16 -3.44 1.04 -3.54 0.92 -3.63 0.79 -3.71 0.65 -3.79 0.52 -3.86 0.37 -3.93 0.23 -3.99 0.08 -4.05 25.88 0 -0.1 5.22 -0.29 5.17 -0.49 5.1 -0.67 5.03 -0.85 4.95 -1.03 4.86 -1.2 4.77 -1.38 4.67 -1.54 4.57 -1.7 4.46 -1.86 4.34 -2.01 4.22 -2.16 4.09 -2.31 3.95 -2.46 3.81 -2.6 3.66 -2.73 3.5 -2.87 3.34 -3 3.18 -3.12 3 -3.25 2.81 -3.37 2.62 -3.49 2.41 -3.6 2.2 -3.71 1.97 -3.81 1.74 -3.91 1.5 -3.99 1.25 -4.07 0.99 -4.15 0.71 -4.2 0.43 -4.25 0.15 0 0zm-418.01 -28.37l418.01 0 0 28.37 -418.01 0 0 0 0 -28.37zm-80.18 -76.29l25.88 0 0 0 0.08 4.05 0.23 3.99 0.37 3.93 0.52 3.86 0.65 3.79 0.79 3.71 0.92 3.63 1.04 3.54 1.16 3.45 1.28 3.34 1.39 3.24 1.5 3.13 1.59 3.01 1.69 2.89 1.78 2.76 1.86 2.63 1.95 2.5 2.02 2.36 2.09 2.21 2.15 2.06 2.21 1.91 2.26 1.75 2.31 1.6 2.35 1.44 2.39 1.27 2.43 1.11 2.46 0.95 2.5 0.78 2.53 0.61 2.56 0.44 2.6 0.27 2.64 0.09 0 28.37 -4.25 -0.15 -4.2 -0.43 -4.15 -0.71 -4.07 -0.99 -3.99 -1.25 -3.91 -1.5 -3.81 -1.74 -3.71 -1.98 -3.6 -2.2 -3.49 -2.41 -3.37 -2.62 -3.25 -2.81 -3.13 -3 -3 -3.18 -2.87 -3.34 -2.73 -3.5 -2.6 -3.66 -2.46 -3.81 -2.31 -3.95 -2.16 -4.09 -2.01 -4.21 -1.86 -4.34 -1.7 -4.46 -1.54 -4.57 -1.38 -4.67 -1.21 -4.77 -1.03 -4.86 -0.85 -4.95 -0.67 -5.03 -0.49 -5.1 -0.29 -5.17 -0.1 -5.22 0 0zm12.94 0l0 0 0 0 0 0 -12.94 0 12.94 0zm67.23 -104.66l0 28.37 0 0 -2.64 0.09 -2.6 0.27 -2.56 0.44 -2.53 0.61 -2.5 0.78 -2.46 0.95 -2.43 1.11 -2.39 1.27 -2.35 1.44 -2.31 1.6 -2.26 1.75 -2.21 1.91 -2.15 2.06 -2.09 2.21 -2.02 2.35 -1.95 2.5 -1.86 2.63 -1.78 2.76 -1.69 2.89 -1.59 3.01 -1.5 3.13 -1.39 3.24 -1.28 3.34 -1.16 3.44 -1.04 3.54 -0.92 3.63 -0.79 3.71 -0.65 3.79 -0.52 3.86 -0.37 3.93 -0.23 3.99 -0.08 4.05 -25.88 0 0.1 -5.22 0.29 -5.17 0.49 -5.1 0.67 -5.03 0.85 -4.95 1.03 -4.86 1.21 -4.77 1.38 -4.67 1.54 -4.56 1.7 -4.46 1.86 -4.34 2.01 -4.21 2.16 -4.09 2.31 -3.95 2.46 -3.81 2.6 -3.66 2.73 -3.51 2.87 -3.34 3 -3.17 3.13 -3 3.25 -2.81 3.37 -2.62 3.49 -2.41 3.6 -2.2 3.71 -1.98 3.81 -1.74 3.91 -1.5 3.99 -1.25 4.07 -0.99 4.15 -0.71 4.2 -0.43 4.25 -0.15 0 0z"/>
   </g>
   <g>
    <path class="fil0" d="M80.18 14.18l418.01 0c36.98,0 67.23,40.71 67.23,90.47l0 0c0,49.76 -30.25,90.47 -67.23,90.47l-418.01 0c-36.98,0 -67.23,-40.71 -67.23,-90.47l0 0c0,-49.76 30.25,-90.47 67.23,-90.47z"/>
    <path id="1" class="fil2" d="M498.19 18.96l-418.01 0 0 -9.55 418.01 0 0 0 0 9.55zm71.59 85.7l-8.71 0 0 0 -0.08 -4.44 -0.25 -4.38 -0.41 -4.32 -0.57 -4.25 -0.72 -4.17 -0.87 -4.09 -1.01 -4.01 -1.15 -3.91 -1.29 -3.82 -1.42 -3.71 -1.54 -3.6 -1.67 -3.49 -1.78 -3.37 -1.9 -3.24 -2 -3.11 -2.11 -2.97 -2.21 -2.83 -2.3 -2.68 -2.39 -2.53 -2.47 -2.37 -2.55 -2.21 -2.63 -2.04 -2.7 -1.87 -2.77 -1.69 -2.83 -1.51 -2.89 -1.32 -2.94 -1.13 -2.99 -0.94 -3.04 -0.74 -3.09 -0.53 -3.13 -0.32 -3.18 -0.11 0 -9.55 3.72 0.13 3.67 0.38 3.62 0.62 3.56 0.86 3.5 1.09 3.43 1.32 3.35 1.53 3.27 1.74 3.19 1.95 3.1 2.14 3 2.33 2.9 2.51 2.8 2.69 2.69 2.85 2.59 3.02 2.47 3.17 2.35 3.32 2.23 3.46 2.11 3.6 1.97 3.73 1.84 3.86 1.7 3.97 1.56 4.09 1.41 4.19 1.26 4.3 1.11 4.39 0.95 4.48 0.79 4.56 0.62 4.64 0.45 4.71 0.27 4.78 0.09 4.84 0 0zm-4.36 0l0 0 0 0 0 0 4.36 0 -4.36 0zm-67.23 95.25l0 -9.55 0 0 3.18 -0.11 3.13 -0.32 3.09 -0.53 3.04 -0.74 2.99 -0.94 2.94 -1.13 2.89 -1.32 2.83 -1.51 2.77 -1.69 2.7 -1.87 2.63 -2.04 2.55 -2.21 2.47 -2.37 2.39 -2.53 2.3 -2.68 2.21 -2.83 2.11 -2.97 2 -3.11 1.9 -3.24 1.78 -3.37 1.67 -3.49 1.54 -3.6 1.42 -3.71 1.29 -3.82 1.15 -3.91 1.01 -4.01 0.87 -4.09 0.72 -4.17 0.57 -4.25 0.41 -4.32 0.25 -4.38 0.08 -4.44 8.71 0 -0.09 4.84 -0.27 4.78 -0.45 4.71 -0.62 4.64 -0.79 4.56 -0.95 4.48 -1.11 4.39 -1.26 4.3 -1.42 4.19 -1.56 4.09 -1.7 3.97 -1.84 3.86 -1.97 3.73 -2.11 3.6 -2.23 3.46 -2.35 3.32 -2.47 3.17 -2.58 3.02 -2.7 2.85 -2.8 2.69 -2.9 2.51 -3 2.33 -3.1 2.14 -3.19 1.95 -3.27 1.74 -3.35 1.53 -3.43 1.32 -3.5 1.09 -3.56 0.86 -3.62 0.62 -3.67 0.38 -3.72 0.13 0 0zm-418.01 -9.55l418.01 0 0 9.55 -418.01 0 0 0 0 -9.55zm-71.59 -85.7l8.71 0 0 0 0.08 4.44 0.25 4.38 0.41 4.32 0.57 4.25 0.72 4.17 0.87 4.09 1.01 4 1.15 3.91 1.29 3.82 1.42 3.71 1.54 3.6 1.67 3.49 1.78 3.37 1.9 3.24 2 3.11 2.11 2.97 2.21 2.83 2.3 2.68 2.39 2.53 2.47 2.37 2.55 2.21 2.63 2.04 2.7 1.87 2.77 1.69 2.83 1.51 2.89 1.32 2.94 1.13 2.99 0.94 3.04 0.74 3.09 0.53 3.13 0.32 3.18 0.11 0 9.55 -3.72 -0.13 -3.67 -0.38 -3.62 -0.62 -3.56 -0.86 -3.5 -1.09 -3.43 -1.32 -3.35 -1.53 -3.27 -1.74 -3.19 -1.95 -3.1 -2.14 -3 -2.33 -2.9 -2.51 -2.8 -2.69 -2.7 -2.85 -2.58 -3.02 -2.47 -3.17 -2.35 -3.32 -2.23 -3.46 -2.11 -3.6 -1.97 -3.73 -1.84 -3.85 -1.7 -3.97 -1.56 -4.09 -1.41 -4.19 -1.26 -4.29 -1.11 -4.39 -0.95 -4.48 -0.79 -4.56 -0.62 -4.64 -0.45 -4.71 -0.27 -4.78 -0.09 -4.84 0 0zm4.36 0l0 0 0 0 0 0 -4.36 0 4.36 0zm67.23 -95.25l0 9.55 0 0 -3.18 0.11 -3.13 0.32 -3.09 0.53 -3.04 0.74 -2.99 0.94 -2.94 1.13 -2.89 1.32 -2.83 1.51 -2.77 1.69 -2.7 1.87 -2.63 2.04 -2.55 2.21 -2.47 2.37 -2.39 2.53 -2.3 2.68 -2.21 2.83 -2.11 2.97 -2 3.11 -1.9 3.24 -1.78 3.37 -1.67 3.49 -1.54 3.6 -1.42 3.71 -1.29 3.82 -1.15 3.91 -1.01 4 -0.87 4.09 -0.72 4.17 -0.57 4.25 -0.41 4.32 -0.25 4.38 -0.08 4.44 -8.71 0 0.09 -4.84 0.27 -4.78 0.45 -4.71 0.62 -4.64 0.79 -4.56 0.95 -4.48 1.11 -4.39 1.27 -4.29 1.41 -4.19 1.56 -4.09 1.7 -3.97 1.84 -3.85 1.97 -3.73 2.11 -3.6 2.23 -3.46 2.35 -3.32 2.47 -3.17 2.59 -3.02 2.69 -2.85 2.8 -2.69 2.9 -2.51 3 -2.33 3.1 -2.14 3.19 -1.95 3.27 -1.74 3.35 -1.53 3.43 -1.32 3.5 -1.09 3.56 -0.86 3.62 -0.62 3.67 -0.38 3.72 -0.13 0 0z"/>
   </g>
   <path class="fil3" d="M69.65 14.19l204.44 0c34.97,25.68 57.85,136.76 -0.92,180.94l-202.9 0c-33.78,-10.25 -58.34,-40.71 -58.34,-90.47l0 0c2.74,-49.76 24.3,-81.17 57.72,-90.47z"/>
   <path class="fil1" d="M61.75 56.59l27.72 0 36.05 53.08 0 -53.08 28.06 0 0 96.13 -28.06 0 -35.84 -52.79 0 52.79 -27.93 0 0 -96.13zm116.06 0l49.41 0c10.77,0 18.82,2.55 24.19,7.67 5.35,5.12 8.03,12.42 8.03,21.89 0,9.71 -2.94,17.32 -8.77,22.78 -5.85,5.47 -14.78,8.21 -26.76,8.21l-16.29 0 0 35.58 -29.81 0 0 -96.13zm29.81 41.08l7.32 0c5.78,0 9.83,-1.01 12.15,-3 2.33,-1.99 3.49,-4.55 3.49,-7.66 0,-3.02 -1.02,-5.57 -3.04,-7.67 -2.02,-2.1 -5.82,-3.16 -11.41,-3.16l-8.5 0 0 21.48z"/>
   <path class="fil4" d="M391.74 136.88l-33.66 0 -4.83 15.84 -30.32 0 36.18 -96.13 32.51 0 36.03 96.13 -31.1 0 -4.81 -15.84zm-6.29 -20.81l-10.49 -34.55 -10.54 34.55 21.03 0zm34.77 -59.47l31.03 0 21.66 69.19 21.35 -69.19 30.14 0 -35.69 96.13 -32.18 0 -36.31 -96.13z"/>
  </g>
 </g>
</svg>
